<?xml version="1.0" encoding="UTF-8" standalone="no"?><!DOCTYPE svg PUBLIC "-//W3C//DTD SVG 1.1//EN" "http://www.w3.org/Graphics/SVG/1.1/DTD/svg11.dtd"><svg width="100%" height="100%" viewBox="0 0 193 42" version="1.1" xmlns="http://www.w3.org/2000/svg" xmlns:xlink="http://www.w3.org/1999/xlink" xml:space="preserve" xmlns:serif="http://www.serif.com/" style="fill-rule:evenodd;clip-rule:evenodd;stroke-linejoin:round;stroke-miterlimit:1.41421;"><text x="45.514px" y="15.758px" style="font-family:'IBMPlexSansCond', 'IBM Plex Sans Condensed', sans-serif;font-stretch:condensed;font-size:8.846px;">AXIOM DESIGN SY<tspan x="112.865px 117.394px " y="15.758px 15.758px ">ST</tspan>EM</text><text x="44.571px" y="32.301px" style="font-family:'IBMPlexSansCond-Bold', 'IBM Plex Sans Condensed', sans-serif;font-weight:700;font-stretch:condensed;font-size:16.586px;">A<tspan x="54.489px 64.258px 73.878px " y="32.301px 32.301px 32.301px ">CRY</tspan>LIC</text><g id="Main-Shape" serif:id="Main Shape"></g><g><path d="M35.136,27.745l-20.87,0l0,-20.87l20.87,0l0,20.87Zm-18.87,-18.87l0,16.87l16.87,0l0,-16.87l-16.87,0Z"/><path d="M16.317,17.276l-0.115,0l-0.109,0.003l-0.108,0.003l-0.108,0.005l-0.108,0.006l-0.107,0.007l-0.107,0.009l-0.106,0.01l-0.106,0.012l-0.106,0.013l-0.105,0.014l-0.105,0.015l-0.104,0.017l-0.104,0.017l-0.103,0.02l-0.103,0.02l-0.102,0.022l-0.102,0.023l-0.102,0.024l-0.101,0.025l-0.101,0.027l-0.1,0.027l-0.099,0.029l-0.099,0.031l-0.099,0.031l-0.098,0.032l-0.097,0.034l-0.097,0.035l-0.097,0.036l-0.096,0.037l-0.095,0.038l-0.094,0.04l-0.095,0.04l-0.093,0.042l-0.093,0.043l-0.092,0.043l-0.092,0.045l-0.091,0.046l-0.091,0.047l-0.089,0.049l-0.09,0.049l-0.088,0.05l-0.088,0.051l-0.087,0.053l-0.087,0.053l-0.086,0.054l-0.085,0.055l-0.084,0.057l-0.084,0.057l-0.083,0.058l-0.082,0.06l-0.082,0.06l-0.08,0.061l-0.08,0.062l-0.08,0.063l-0.078,0.064l-0.078,0.065l-0.077,0.066l-0.076,0.067l-0.075,0.067l-0.075,0.069l-0.073,0.069l-0.073,0.07l-0.072,0.072l-0.071,0.072l-0.07,0.072l-0.07,0.074l-0.068,0.074l-0.068,0.076l-0.067,0.076l-0.065,0.077l-0.065,0.077l-0.064,0.079l-0.063,0.079l-0.063,0.08l-0.061,0.081l-0.06,0.081l-0.059,0.083l-0.059,0.083l-0.057,0.083l-0.056,0.085l-0.055,0.085l-0.055,0.086l-0.053,0.086l-0.052,0.088l-0.052,0.087l-0.05,0.089l-0.049,0.089l-0.048,0.09l-0.047,0.09l-0.046,0.091l-0.045,0.092l-0.044,0.093l-0.043,0.092l-0.041,0.094l-0.041,0.094l-0.039,0.095l-0.038,0.095l-0.038,0.096l-0.036,0.096l-0.034,0.097l-0.034,0.098l-0.033,0.098l-0.031,0.098l-0.03,0.099l-0.029,0.1l-0.028,0.1l-0.026,0.101l-0.026,0.101l-0.024,0.101l-0.023,0.102l-0.022,0.103l-0.02,0.103l-0.019,0.103l-0.018,0.104l-0.017,0.104l-0.015,0.105l-0.014,0.105l-0.013,0.105l-0.011,0.106l-0.01,0.107l-0.009,0.107l-0.008,0.107l-0.006,0.107l-0.005,0.108l-0.003,0.109l-0.002,0.108l-0.001,0.109l0.001,0.109l0.002,0.109l0.003,0.108l0.005,0.108l0.006,0.108l0.008,0.107l0.009,0.107l0.01,0.106l0.011,0.106l0.013,0.106l0.014,0.105l0.015,0.105l0.017,0.104l0.018,0.104l0.019,0.103l0.02,0.103l0.022,0.102l0.023,0.103l0.024,0.101l0.025,0.101l0.027,0.101l0.028,0.1l0.029,0.099l0.03,0.099l0.031,0.099l0.033,0.098l0.034,0.097l0.034,0.097l0.036,0.097l0.038,0.096l0.038,0.095l0.039,0.095l0.041,0.094l0.041,0.093l0.043,0.093l0.044,0.092l0.045,0.092l0.046,0.091l0.047,0.091l0.048,0.09l0.049,0.089l0.05,0.088l0.052,0.088l0.052,0.087l0.053,0.087l0.055,0.086l0.055,0.085l0.056,0.084l0.057,0.084l0.059,0.083l0.059,0.082l0.06,0.082l0.061,0.08l0.063,0.08l0.063,0.08l0.064,0.078l0.065,0.078l0.065,0.077l0.067,0.076l0.068,0.075l0.068,0.075l0.07,0.073l0.07,0.073l0.071,0.072l0.072,0.071l0.073,0.07l0.073,0.07l0.075,0.068l0.075,0.068l0.076,0.067l0.077,0.066l0.078,0.064l0.078,0.064l0.08,0.063l0.08,0.063l0.08,0.061l0.082,0.06l0.082,0.059l0.083,0.059l0.084,0.057l0.084,0.056l0.085,0.056l0.086,0.054l0.087,0.053l0.087,0.052l0.088,0.052l0.088,0.05l0.09,0.049l0.089,0.048l0.091,0.047l0.091,0.046l0.092,0.045l0.092,0.044l0.093,0.043l0.093,0.041l0.095,0.041l0.094,0.039l0.095,0.039l0.096,0.037l0.097,0.036l0.097,0.035l0.097,0.033l0.098,0.033l0.099,0.031l0.099,0.03l0.099,0.029l0.1,0.028l0.101,0.027l0.101,0.025l0.102,0.024l0.102,0.023l0.102,0.022l0.103,0.02l0.103,0.019l0.104,0.018l0.104,0.017l0.105,0.015l0.105,0.014l0.106,0.013l0.106,0.011l0.106,0.01l0.107,0.009l0.107,0.008l0.108,0.006l0.108,0.005l0.108,0.003l0.109,0.002l0.109,0.001l0.109,-0.001l0.108,-0.002l0.109,-0.003l0.108,-0.005l0.107,-0.006l0.107,-0.008l0.107,-0.009l0.107,-0.01l0.106,-0.011l0.105,-0.013l0.105,-0.014l0.105,-0.015l0.104,-0.017l0.104,-0.018l0.103,-0.019l0.103,-0.02l0.103,-0.022l0.102,-0.023l0.101,-0.024l0.102,-0.025l0.1,-0.027l0.1,-0.028l0.1,-0.029l0.099,-0.03l0.098,-0.031l0.098,-0.033l0.098,-0.033l0.097,-0.035l0.096,-0.036l0.096,-0.037l0.095,-0.039l0.095,-0.039l0.094,-0.041l0.094,-0.041l0.093,-0.043l0.092,-0.044l0.092,-0.045l0.091,-0.046l0.09,-0.047l0.09,-0.048l0.089,-0.049l0.089,-0.05l0.088,-0.052l0.087,-0.052l0.086,-0.053l0.086,-0.054l0.085,-0.056l0.085,-0.056l0.083,-0.057l0.083,-0.059l0.083,-0.059l0.081,-0.06l0.081,-0.061l0.08,-0.063l0.079,-0.063l0.079,-0.064l0.077,-0.064l0.077,-0.066l0.076,-0.067l0.076,-0.068l0.074,-0.068l0.074,-0.07l0.073,-0.07l0.071,-0.071l0.072,-0.072l0.07,-0.073l0.069,-0.073l0.069,-0.075l0.067,-0.075l0.067,-0.076l0.066,-0.077l0.065,-0.078l0.064,-0.078l0.063,-0.08l0.062,-0.08l0.061,-0.08l0.06,-0.082l0.06,-0.082l0.058,-0.083l0.057,-0.084l0.057,-0.084l0.055,-0.085l0.054,-0.086l0.054,-0.087l0.052,-0.087l0.051,-0.088l0.05,-0.088l0.049,-0.089l0.049,-0.09l0.047,-0.091l0.046,-0.091l0.045,-0.092l0.043,-0.092l0.043,-0.093l0.042,-0.093l0.04,-0.094l0.04,-0.095l0.038,-0.095l0.037,-0.096l0.036,-0.097l0.035,-0.097l0.034,-0.097l0.032,-0.098l0.031,-0.099l0.031,-0.099l0.029,-0.099l0.027,-0.1l0.027,-0.101l0.025,-0.101l0.024,-0.102l0.023,-0.102l0.022,-0.102l0.02,-0.103l0.02,-0.103l0.017,-0.104l0.017,-0.104l0.015,-0.105l0.015,-0.105l0.012,-0.106l0.012,-0.106l0.01,-0.106l0.009,-0.107l0.007,-0.107l0.006,-0.108l0.005,-0.108l0.004,-0.108l0.002,-0.109l0,-0.115l2,0.013l-0.001,0.128l-0.002,0.134l-0.004,0.133l-0.006,0.134l-0.008,0.133l-0.009,0.132l-0.011,0.132l-0.013,0.132l-0.014,0.131l-0.015,0.13l-0.018,0.13l-0.019,0.13l-0.02,0.129l-0.023,0.129l-0.023,0.128l-0.026,0.127l-0.026,0.127l-0.029,0.127l-0.03,0.126l-0.031,0.125l-0.033,0.125l-0.035,0.124l-0.035,0.123l-0.038,0.123l-0.039,0.122l-0.04,0.121l-0.042,0.121l-0.043,0.12l-0.045,0.12l-0.046,0.119l-0.047,0.118l-0.049,0.117l-0.05,0.117l-0.052,0.116l-0.053,0.115l-0.054,0.114l-0.055,0.114l-0.057,0.112l-0.059,0.112l-0.059,0.112l-0.061,0.11l-0.062,0.11l-0.064,0.108l-0.064,0.108l-0.066,0.107l-0.068,0.106l-0.068,0.106l-0.07,0.104l-0.071,0.104l-0.072,0.102l-0.073,0.102l-0.074,0.101l-0.076,0.1l-0.077,0.098l-0.078,0.098l-0.079,0.097l-0.08,0.096l-0.081,0.095l-0.083,0.094l-0.083,0.093l-0.085,0.092l-0.086,0.091l-0.086,0.09l-0.088,0.089l-0.089,0.088l-0.09,0.087l-0.091,0.086l-0.092,0.084l-0.093,0.084l-0.094,0.082l-0.095,0.082l-0.096,0.08l-0.097,0.079l-0.098,0.078l-0.099,0.077l-0.1,0.075l-0.101,0.075l-0.101,0.073l-0.103,0.072l-0.103,0.071l-0.105,0.07l-0.105,0.068l-0.106,0.067l-0.107,0.066l-0.108,0.065l-0.109,0.063l-0.11,0.062l-0.11,0.061l-0.111,0.06l-0.112,0.058l-0.113,0.057l-0.114,0.056l-0.114,0.054l-0.115,0.053l-0.116,0.051l-0.116,0.051l-0.118,0.049l-0.118,0.047l-0.119,0.046l-0.119,0.045l-0.12,0.043l-0.121,0.042l-0.122,0.04l-0.122,0.039l-0.123,0.037l-0.123,0.036l-0.124,0.034l-0.125,0.033l-0.125,0.032l-0.126,0.03l-0.126,0.028l-0.127,0.027l-0.128,0.025l-0.128,0.024l-0.128,0.022l-0.13,0.021l-0.129,0.019l-0.13,0.017l-0.131,0.016l-0.131,0.014l-0.132,0.013l-0.132,0.011l-0.132,0.009l-0.133,0.007l-0.133,0.006l-0.134,0.005l-0.134,0.002l-0.134,0.001l-0.135,-0.001l-0.134,-0.002l-0.133,-0.005l-0.134,-0.006l-0.132,-0.007l-0.133,-0.009l-0.132,-0.011l-0.131,-0.013l-0.132,-0.014l-0.13,-0.016l-0.13,-0.017l-0.13,-0.019l-0.129,-0.021l-0.129,-0.022l-0.128,-0.024l-0.127,-0.025l-0.127,-0.027l-0.127,-0.028l-0.126,-0.03l-0.125,-0.032l-0.125,-0.033l-0.124,-0.034l-0.123,-0.036l-0.123,-0.037l-0.122,-0.039l-0.121,-0.04l-0.121,-0.042l-0.12,-0.043l-0.12,-0.045l-0.119,-0.046l-0.118,-0.047l-0.117,-0.049l-0.117,-0.051l-0.116,-0.051l-0.115,-0.053l-0.114,-0.054l-0.114,-0.056l-0.112,-0.057l-0.112,-0.058l-0.112,-0.06l-0.11,-0.061l-0.11,-0.062l-0.108,-0.063l-0.108,-0.065l-0.107,-0.066l-0.106,-0.067l-0.106,-0.068l-0.104,-0.07l-0.104,-0.071l-0.102,-0.072l-0.102,-0.073l-0.101,-0.075l-0.099,-0.075l-0.099,-0.077l-0.098,-0.078l-0.097,-0.079l-0.096,-0.08l-0.095,-0.082l-0.094,-0.082l-0.093,-0.084l-0.092,-0.084l-0.091,-0.086l-0.09,-0.087l-0.089,-0.088l-0.088,-0.089l-0.087,-0.09l-0.086,-0.091l-0.084,-0.092l-0.084,-0.093l-0.082,-0.094l-0.082,-0.095l-0.08,-0.096l-0.079,-0.097l-0.078,-0.098l-0.077,-0.098l-0.075,-0.1l-0.075,-0.101l-0.073,-0.102l-0.072,-0.102l-0.071,-0.104l-0.07,-0.104l-0.068,-0.106l-0.067,-0.106l-0.066,-0.107l-0.065,-0.108l-0.063,-0.108l-0.062,-0.11l-0.061,-0.11l-0.06,-0.112l-0.058,-0.112l-0.057,-0.112l-0.056,-0.114l-0.054,-0.114l-0.053,-0.115l-0.051,-0.116l-0.051,-0.117l-0.048,-0.117l-0.048,-0.118l-0.046,-0.119l-0.045,-0.12l-0.043,-0.12l-0.041,-0.121l-0.041,-0.121l-0.039,-0.122l-0.037,-0.123l-0.036,-0.123l-0.034,-0.124l-0.033,-0.125l-0.032,-0.125l-0.03,-0.126l-0.028,-0.127l-0.027,-0.127l-0.025,-0.127l-0.024,-0.128l-0.022,-0.129l-0.021,-0.129l-0.019,-0.13l-0.017,-0.13l-0.016,-0.13l-0.014,-0.131l-0.013,-0.132l-0.01,-0.132l-0.01,-0.132l-0.007,-0.133l-0.006,-0.134l-0.004,-0.133l-0.003,-0.134l-0.001,-0.135l0.001,-0.134l0.003,-0.134l0.004,-0.134l0.006,-0.133l0.007,-0.133l0.01,-0.132l0.01,-0.132l0.013,-0.132l0.014,-0.131l0.016,-0.131l0.017,-0.13l0.019,-0.129l0.021,-0.13l0.022,-0.128l0.024,-0.128l0.025,-0.128l0.027,-0.127l0.028,-0.126l0.03,-0.126l0.032,-0.125l0.033,-0.125l0.034,-0.124l0.036,-0.123l0.037,-0.123l0.039,-0.122l0.041,-0.122l0.041,-0.121l0.043,-0.12l0.045,-0.119l0.046,-0.119l0.048,-0.118l0.048,-0.117l0.051,-0.117l0.051,-0.116l0.053,-0.115l0.054,-0.114l0.056,-0.114l0.057,-0.113l0.058,-0.112l0.06,-0.111l0.061,-0.11l0.062,-0.11l0.063,-0.109l0.065,-0.108l0.066,-0.107l0.067,-0.106l0.068,-0.105l0.07,-0.104l0.071,-0.104l0.072,-0.103l0.073,-0.101l0.075,-0.101l0.075,-0.1l0.077,-0.099l0.078,-0.098l0.079,-0.097l0.08,-0.096l0.082,-0.095l0.082,-0.094l0.084,-0.093l0.084,-0.092l0.086,-0.091l0.087,-0.09l0.088,-0.089l0.089,-0.088l0.09,-0.086l0.091,-0.086l0.092,-0.085l0.093,-0.083l0.094,-0.083l0.095,-0.081l0.096,-0.08l0.097,-0.079l0.098,-0.078l0.099,-0.077l0.099,-0.076l0.101,-0.074l0.102,-0.073l0.102,-0.072l0.104,-0.071l0.104,-0.07l0.106,-0.068l0.106,-0.068l0.107,-0.066l0.108,-0.064l0.108,-0.064l0.11,-0.062l0.11,-0.061l0.112,-0.059l0.112,-0.059l0.112,-0.056l0.114,-0.056l0.114,-0.054l0.115,-0.053l0.116,-0.052l0.117,-0.05l0.117,-0.049l0.118,-0.047l0.119,-0.046l0.12,-0.045l0.12,-0.043l0.121,-0.042l0.121,-0.04l0.122,-0.039l0.123,-0.037l0.123,-0.036l0.124,-0.035l0.125,-0.033l0.125,-0.031l0.126,-0.03l0.127,-0.028l0.127,-0.027l0.127,-0.026l0.128,-0.023l0.129,-0.023l0.129,-0.02l0.13,-0.019l0.13,-0.017l0.13,-0.016l0.132,-0.014l0.131,-0.013l0.132,-0.011l0.133,-0.009l0.132,-0.008l0.134,-0.006l0.133,-0.004l0.134,-0.002l0.128,-0.001l0.013,2Z"/><path d="M26.722,25.165l0.006,0.133l0.004,0.134l0.002,0.134l0.001,0.128l-2,0.013l0,-0.116l-0.002,-0.108l-0.004,-0.109l-0.005,-0.108l-0.006,-0.113l1.997,-0.114l0.007,0.126Zm-0.348,-2.193l0.033,0.125l0.031,0.125l0.03,0.126l0.029,0.126l0.026,0.127l0.026,0.128l0.023,0.128l0.014,0.077l-1.971,0.339l0,0l0.985,-0.17l-0.985,0.17l-0.011,-0.064l-0.02,-0.103l-0.02,-0.103l-0.022,-0.103l-0.023,-0.102l-0.024,-0.101l-0.025,-0.101l-0.027,-0.101l-0.027,-0.099l1.927,-0.535l0.031,0.111Zm-0.839,-2.129l0.059,0.112l0.057,0.113l0.055,0.114l0.054,0.114l0.053,0.115l0.052,0.116l0.05,0.117l0.049,0.117l0.02,0.049l-0.928,0.373l0.928,-0.373l0,0l-1.856,0.746l0,0l-0.015,-0.038l-0.04,-0.095l-0.04,-0.094l-0.042,-0.094l-0.043,-0.092l-0.043,-0.093l-0.045,-0.092l-0.046,-0.091l-0.047,-0.09l-0.015,-0.028l1.763,-0.944l0.02,0.038Zm-1.182,-1.773l0.079,0.097l0.078,0.098l0.077,0.099l0.076,0.1l0.074,0.101l0.073,0.101l0.072,0.103l0.06,0.087l-1.65,1.13l0,0l0.825,-0.565l-0.825,0.565l-0.053,-0.077l-0.058,-0.083l-0.06,-0.083l-0.06,-0.081l-0.061,-0.081l-0.062,-0.08l-0.063,-0.079l-0.064,-0.079l-0.065,-0.077l1.535,-1.283l0.072,0.087Zm-1.607,-1.569l0.098,0.078l0.097,0.079l0.096,0.08l0.095,0.081l0.094,0.083l0.093,0.083l0.092,0.085l0.091,0.086l0.021,0.02l-1.388,1.44l0,0l0.694,-0.72l-0.694,0.72l-0.013,-0.013l-0.074,-0.069l-0.074,-0.069l-0.076,-0.067l-0.076,-0.067l-0.077,-0.066l-0.077,-0.065l-0.079,-0.064l-0.079,-0.063l-0.051,-0.04l1.226,-1.579l0.061,0.047Zm-1.917,-1.196l0.114,0.056l0.113,0.056l0.112,0.059l0.111,0.059l0.11,0.061l0.11,0.062l0.109,0.064l0.108,0.064l0.059,0.037l-0.525,0.851l0.525,-0.851l0,0l-1.049,1.703l0,0l-0.049,-0.03l-0.087,-0.053l-0.088,-0.051l-0.089,-0.05l-0.089,-0.049l-0.09,-0.049l-0.09,-0.047l-0.091,-0.046l-0.092,-0.045l-0.017,-0.007l0.858,-1.807l0.027,0.013Zm-2.04,-0.732l0.125,0.031l0.125,0.033l0.124,0.035l0.123,0.036l0.123,0.037l0.122,0.039l0.122,0.04l0.121,0.042l0.014,0.005l-0.676,1.882l0,0l0.338,-0.941l-0.338,0.941l-0.003,-0.001l-0.098,-0.034l-0.098,-0.032l-0.098,-0.031l-0.099,-0.031l-0.1,-0.029l-0.1,-0.027l-0.1,-0.027l-0.102,-0.025l-0.054,-0.013l0.462,-1.946l0.067,0.016Zm-2.21,-0.294l0.134,0.004l0.133,0.006l0.133,0.008l0.132,0.009l0.132,0.011l0.132,0.013l0.131,0.014l0.122,0.014l-0.12,0.993l0.12,-0.993l0,0l-0.24,1.986l0,0l-0.109,-0.013l-0.106,-0.012l-0.107,-0.01l-0.107,-0.009l-0.107,-0.007l-0.107,-0.006l-0.108,-0.005l-0.109,-0.003l-0.036,-0.001l0.038,-2l0.049,0.001Z"/></g></svg>